<svg width="64" height="64" viewBox="0 0 64 64" fill="none" xmlns="http://www.w3.org/2000/svg">
  <defs>
    <linearGradient id="logo-gradient" x1="0%" y1="0%" x2="100%" y2="100%">
      <stop offset="0%" stop-color="#3B82F6"/>
      <stop offset="100%" stop-color="#8B5CF6"/>
    </linearGradient>
    <filter id="shadow" x="-20%" y="-20%" width="140%" height="140%">
      <feDropShadow dx="0" dy="2" stdDeviation="3" flood-color="#000000" flood-opacity="0.1"/>
    </filter>
  </defs>
  
  <!-- Background circle -->
  <circle cx="32" cy="32" r="28" fill="url(#logo-gradient)" filter="url(#shadow)"/>
  
  <!-- Form icon -->
  <g transform="translate(16, 16)">
    <!-- Document base -->
    <rect x="4" y="2" width="24" height="28" rx="2" fill="white" opacity="0.95"/>
    
    <!-- Lines representing form fields -->
    <rect x="8" y="8" width="16" height="2" rx="1" fill="#3B82F6"/>
    <rect x="8" y="12" width="12" height="2" rx="1" fill="#6B7280"/>
    <rect x="8" y="16" width="14" height="2" rx="1" fill="#6B7280"/>
    <rect x="8" y="20" width="10" height="2" rx="1" fill="#6B7280"/>
    
    <!-- Analytics chart overlay -->
    <path d="M8 26 L12 24 L16 26 L20 22 L24 25 L28 23" stroke="#8B5CF6" stroke-width="2" fill="none" stroke-linecap="round" stroke-linejoin="round"/>
    
    <!-- Privacy shield -->
    <path d="M20 4 L24 6 L20 8 L16 6 Z" fill="#10B981"/>
  </g>
  
  <!-- Subtle highlight -->
  <circle cx="24" cy="24" r="4" fill="white" opacity="0.3"/>
</svg> 